# xmcd CD database file
#
# Track frame offsets:
#	150
#	16002
#	36646
#	59352
#	76443
#	98397
#	115022
#	130836
#	149034
#	174986
#
# Disc length: 2532 seconds
#
# Revision: 0
# Processed by: cddbd v1.5.1PL2 Copyright (c) Steve Scherf et al.
# Submitted via: CDex 1.51
#
DISCID=7e09e20a
DTITLE=Dan Lindén - Dan Lindén Quartet
DYEAR=2005
DGENRE=Jazz
TTITLE0=C-minor shuffle
TTITLE1=The end of the road
TTITLE2=Georgia on my mind
TTITLE3=Rhapsody in blue
TTITLE4=Kiss
TTITLE5=Route 66
TTITLE6=Ode to Billy Joe
TTITLE7=River deep, mountain high
TTITLE8=Higher ground
TTITLE9=Amazing grace
EXTD=YEAR: 2005
EXTT0=
EXTT1=
EXTT2=
EXTT3=
EXTT4=
EXTT5=
EXTT6=
EXTT7=
EXTT8=
EXTT9=
PLAYORDER=
